# Blender 3.1.0
# www.blender.org
mtllib finalsky.mtl
o Cube
v 1.000000 -1.000000 1.000000
v 1.000000 1.000000 1.000000
v 1.000000 -1.000000 -1.000000
v 1.000000 1.000000 -1.000000
v -1.000000 -1.000000 1.000000
v -1.000000 1.000000 1.000000
v -1.000000 -1.000000 -1.000000
v -1.000000 1.000000 -1.000000
vn -0.0000 -1.0000 -0.0000
vn -0.0000 -0.0000 -1.0000
vn -1.0000 -0.0000 -0.0000
vn -0.0000 1.0000 -0.0000
vn 1.0000 -0.0000 -0.0000
vn -0.0000 -0.0000 1.0000
vt 0.252018 0.003116
vt 0.002061 0.335750
vt 1.001888 0.335750
vt 0.252018 0.998951
vt 0.002061 0.668384
vt 1.001888 0.668384
vt 0.252018 0.335750
vt 0.252018 0.668384
vt 0.501975 0.003116
vt 0.751931 0.335750
vt 0.501975 1.001018
vt 0.751931 0.668384
vt 0.501975 0.335750
vt 0.501975 0.668384
s 0
usemtl Material.002
f 1/1/1 5/9/1 7/13/1 3/7/1
f 4/8/2 3/7/2 7/13/2 8/14/2
f 8/14/3 7/13/3 5/10/3 6/12/3
f 6/11/4 2/4/4 4/8/4 8/14/4
f 2/5/5 1/2/5 3/7/5 4/8/5
f 6/12/6 5/10/6 1/3/6 2/6/6
